<svg width="15" height="14" viewBox="0 0 15 14" fill="none" xmlns="http://www.w3.org/2000/svg">
<path d="M3.05 14H0.0500031V4H3.05V14ZM14.05 14H11.05V8.658C11.05 7.266 10.554 6.573 9.571 6.573C8.792 6.573 8.298 6.961 8.05 7.738C8.05 9 8.05 14 8.05 14H5.05C5.05 14 5.09 5 5.05 4H7.418L7.601 6H7.663C8.278 5 9.261 4.322 10.609 4.322C11.634 4.322 12.463 4.607 13.096 5.323C13.733 6.04 14.05 7.002 14.05 8.353V14Z" fill="white"/>
<path d="M3.1 1.5C3.1 2.328 2.406 3 1.55 3C0.694 3 0 2.328 0 1.5C0 0.672 0.694 0 1.55 0C2.406 0 3.1 0.672 3.1 1.5Z" fill="white"/>
</svg>
