<svg width="18" height="16" viewBox="0 0 18 16" fill="none" xmlns="http://www.w3.org/2000/svg">
<path d="M5.997 3.229V15.011C5.997 15.322 5.846 15.614 5.505 15.614C5.384 15.614 5.274 15.584 5.174 15.534L0.502999 13.194C0.221999 13.053 0.000999451 12.692 0.000999451 12.39V0.939C0.000999451 0.688 0.121999 0.457 0.392999 0.457C0.553999 0.457 0.693999 0.537 0.834999 0.608L5.968 3.179C5.978 3.189 5.998 3.219 5.998 3.229H5.997ZM6.64 4.243L12.004 12.942L6.64 10.27V4.243V4.243ZM18 4.424V15.011C18 15.342 17.809 15.574 17.478 15.574C17.307 15.574 17.147 15.524 17.006 15.443L12.576 13.233L18 4.424ZM17.97 3.219C17.97 3.259 12.777 11.687 12.375 12.329L8.458 5.961L11.712 0.667C11.822 0.486 12.023 0.386 12.234 0.386C12.324 0.386 12.415 0.406 12.495 0.446L17.929 3.158C17.949 3.168 17.969 3.188 17.969 3.218L17.97 3.219Z" fill="white"/>
</svg>
