<!-- Generated by IcoMoon.io -->
<svg version="1.1" xmlns="http://www.w3.org/2000/svg" width="18" height="18" viewBox="0 0 18 18">
<title>medium</title>
<path fill="#ffffff" d="M5.997 4.229v11.782c0 0.311-0.151 0.603-0.492 0.603-0.121 0-0.231-0.030-0.331-0.080l-4.671-2.34c-0.281-0.141-0.502-0.502-0.502-0.804v-11.451c0-0.251 0.121-0.482 0.392-0.482 0.161 0 0.301 0.080 0.442 0.151l5.133 2.571c0.010 0.010 0.030 0.040 0.030 0.050zM6.64 5.243l5.364 8.699-5.364-2.672v-6.027zM18 5.424v10.587c0 0.331-0.191 0.563-0.522 0.563-0.171 0-0.331-0.050-0.472-0.131l-4.43-2.21zM17.97 4.219c0 0.040-5.193 8.468-5.595 9.11l-3.917-6.368 3.254-5.294c0.11-0.181 0.311-0.281 0.522-0.281 0.090 0 0.181 0.020 0.261 0.060l5.434 2.712c0.020 0.010 0.040 0.030 0.040 0.060z"></path>
</svg>
