<svg width="18" height="18" viewBox="0 0 18 18" fill="none" xmlns="http://www.w3.org/2000/svg">
<path d="M12.578 12.504C12.578 12.266 12.4663 12.0763 12.243 11.935C10.807 11.0797 9.14401 10.652 7.25401 10.652C6.26467 10.652 5.19701 10.7783 4.05101 11.031C3.73834 11.0977 3.58201 11.291 3.58201 11.611C3.58201 11.7597 3.63234 11.888 3.73301 11.996C3.83367 12.104 3.96567 12.158 4.12901 12.158C4.16634 12.158 4.30401 12.1283 4.54201 12.069C5.52401 11.8683 6.42801 11.768 7.25401 11.768C8.93534 11.768 10.4123 12.1513 11.685 12.918C11.8263 13 11.949 13.041 12.053 13.041C12.1943 13.041 12.317 12.9907 12.421 12.89C12.525 12.7893 12.577 12.661 12.577 12.505L12.578 12.504ZM13.65 10.105C13.65 9.80767 13.5197 9.58067 13.259 9.424C11.4957 8.37467 9.45701 7.85 7.14301 7.85C6.00434 7.85 4.87701 8.00633 3.76101 8.319C3.40367 8.41567 3.22501 8.65367 3.22501 9.033C3.22501 9.219 3.29001 9.377 3.42001 9.507C3.55001 9.637 3.70801 9.702 3.89401 9.702C3.94601 9.702 4.08367 9.67233 4.30701 9.613C5.21501 9.36767 6.14867 9.245 7.10801 9.245C9.18401 9.245 10.9993 9.70633 12.554 10.629C12.7327 10.7257 12.874 10.774 12.978 10.774C13.164 10.774 13.322 10.709 13.452 10.579C13.582 10.449 13.647 10.291 13.647 10.105H13.65ZM14.855 7.337C14.855 6.987 14.7063 6.72667 14.409 6.556C13.4717 6.01267 12.3817 5.60167 11.139 5.323C9.89634 5.04433 8.62034 4.90467 7.31101 4.904C5.79301 4.904 4.43867 5.079 3.24801 5.429C3.07667 5.481 2.93334 5.576 2.81801 5.714C2.70267 5.852 2.64501 6.03233 2.64501 6.255C2.64501 6.48567 2.72134 6.679 2.87401 6.835C3.02667 6.991 3.21834 7.069 3.44901 7.069C3.53101 7.069 3.67967 7.03933 3.89501 6.98C4.88434 6.70467 6.02634 6.567 7.32101 6.567C8.50434 6.567 9.65567 6.69333 10.775 6.946C11.8943 7.19867 12.8373 7.552 13.604 8.006C13.76 8.09533 13.9087 8.14 14.05 8.14C14.266 8.14 14.454 8.06367 14.614 7.911C14.774 7.75833 14.854 7.56667 14.854 7.336L14.855 7.337ZM17.143 9C17.143 10.5553 16.7597 11.9893 15.993 13.302C15.2263 14.6147 14.1867 15.6543 12.874 16.421C11.5613 17.1877 10.1273 17.571 8.57201 17.571C7.01667 17.571 5.58267 17.1877 4.27001 16.421C2.95734 15.6543 1.91767 14.6147 1.15101 13.302C0.38434 11.9893 0.00100708 10.5553 0.00100708 9C0.00100708 7.44467 0.38434 6.01067 1.15101 4.698C1.91767 3.38533 2.95734 2.34567 4.27001 1.579C5.58267 0.812333 7.01667 0.429 8.57201 0.429C10.1273 0.429 11.5613 0.812333 12.874 1.579C14.1867 2.34567 15.2263 3.38533 15.993 4.698C16.7597 6.01067 17.143 7.44467 17.143 9Z" fill="white"/>
</svg>
