<?xml version="1.0" encoding="utf-8"?>
<!-- Generated by IcoMoon.io -->
<!DOCTYPE svg PUBLIC "-//W3C//DTD SVG 1.1//EN" "http://www.w3.org/Graphics/SVG/1.1/DTD/svg11.dtd">
<svg version="1.1" xmlns="http://www.w3.org/2000/svg" xmlns:xlink="http://www.w3.org/1999/xlink" width="17" height="20" viewBox="0 0 17 20">
<path fill="#121212" d="M12.578 13.504q0-0.357-0.335-0.569-2.154-1.283-4.989-1.283-1.484 0-3.203 0.379-0.469 0.1-0.469 0.58 0 0.223 0.151 0.385t0.396 0.162q0.056 0 0.413-0.089 1.473-0.301 2.712-0.301 2.522 0 4.431 1.15 0.212 0.123 0.368 0.123 0.212 0 0.368-0.151t0.156-0.385zM13.65 11.105q0-0.446-0.391-0.681-2.645-1.574-6.116-1.574-1.708 0-3.382 0.469-0.536 0.145-0.536 0.714 0 0.279 0.195 0.474t0.474 0.195q0.078 0 0.413-0.089 1.362-0.368 2.801-0.368 3.114 0 5.446 1.384 0.268 0.145 0.424 0.145 0.279 0 0.474-0.195t0.195-0.474zM14.855 8.337q0-0.525-0.446-0.781-1.406-0.815-3.27-1.233t-3.828-0.419q-2.277 0-4.063 0.525-0.257 0.078-0.43 0.285t-0.173 0.541q0 0.346 0.229 0.58t0.575 0.234q0.123 0 0.446-0.089 1.484-0.413 3.426-0.413 1.775 0 3.454 0.379t2.829 1.060q0.234 0.134 0.446 0.134 0.324 0 0.564-0.229t0.24-0.575zM17.143 10q0 2.333-1.15 4.302t-3.119 3.119-4.302 1.15-4.302-1.15-3.119-3.119-1.15-4.302 1.15-4.302 3.119-3.119 4.302-1.15 4.302 1.15 3.119 3.119 1.15 4.302z"></path>
</svg>
