<svg width="18" height="16" viewBox="0 0 18 16" fill="none" xmlns="http://www.w3.org/2000/svg">
<path d="M15.89 3.012C16.698 2.516 17.233 1.839 17.495 0.978C16.709 1.395 15.926 1.681 15.144 1.839C14.441 1.083 13.551 0.698999 12.484 0.698999C11.441 0.698999 10.56 1.065 9.84099 1.777C9.12599 2.494 8.76499 3.365 8.76499 4.382C8.76499 4.691 8.80399 4.967 8.88199 5.201C5.80599 5.096 3.25999 3.82 1.25399 1.364C0.913993 1.965 0.743993 2.577 0.743993 3.21C0.743993 4.511 1.29299 5.542 2.38899 6.299C1.76399 6.246 1.21299 6.088 0.743993 5.829C0.743993 6.758 1.01699 7.534 1.56399 8.217C2.11299 8.893 2.81799 9.324 3.67899 9.508C3.36699 9.588 3.03799 9.626 2.69999 9.626C2.38799 9.626 2.16699 9.6 2.03599 9.543C2.26599 10.3 2.69999 10.914 3.32699 11.384C3.95199 11.856 4.67099 12.105 5.47899 12.127C4.14699 13.172 2.62399 13.689 0.900993 13.689C0.478993 13.689 0.179993 13.683 -0.00100708 13.651C1.69599 14.753 3.58499 15.3 5.67499 15.3C7.81399 15.3 9.70399 14.758 11.349 13.674C12.994 12.596 14.208 11.266 14.988 9.7C15.772 8.136 16.16 6.508 16.16 4.808V4.34C16.918 3.77 17.531 3.128 18 2.419C17.32 2.712 16.617 2.911 15.89 3.012V3.012Z" fill="white"/>
</svg>
