<svg width="14" height="12" viewBox="0 0 14 12" fill="none" xmlns="http://www.w3.org/2000/svg">
<path d="M9.435 6.973C9.704 6.973 9.927 7.106 10.121 7.369C10.313 7.634 10.415 7.957 10.415 8.344C10.415 8.729 10.313 9.055 10.121 9.317C9.928 9.582 9.704 9.713 9.435 9.713C9.157 9.713 8.913 9.582 8.72 9.317C8.528 9.055 8.426 8.729 8.426 8.344C8.426 7.957 8.528 7.634 8.72 7.369C8.912 7.105 9.156 6.973 9.435 6.973ZM12.875 3.414C13.621 4.225 14 5.209 14 6.367C14 7.115 13.914 7.79 13.741 8.39C13.566 8.987 13.347 9.474 13.087 9.849C12.823 10.225 12.499 10.554 12.113 10.838C11.727 11.124 11.372 11.33 11.048 11.461C10.723 11.593 10.353 11.694 9.937 11.767C9.52 11.838 9.211 11.878 8.994 11.89C8.781 11.899 8.556 11.904 8.309 11.904C8.254 11.904 8.066 11.908 7.762 11.919C7.461 11.932 7.202 11.935 7 11.935C6.798 11.935 6.539 11.932 6.238 11.919C5.934 11.908 5.746 11.904 5.691 11.904C5.445 11.904 5.219 11.899 5.006 11.89C4.788 11.878 4.48 11.838 4.063 11.767C3.64 11.695 3.277 11.593 2.952 11.461C2.628 11.33 2.272 11.124 1.888 10.838C1.501 10.554 1.177 10.225 0.913 9.849C0.652 9.474 0.434 8.987 0.259 8.39C0.0859998 7.79 0 7.115 0 6.367C0 5.209 0.379 4.224 1.125 3.414C1.043 3.373 1.04 2.967 1.117 2.197C1.18 1.426 1.344 0.715 1.612 0.0650001C2.546 0.164 3.702 0.694 5.083 1.646C5.549 1.527 6.184 1.463 7 1.463C7.852 1.463 8.491 1.527 8.918 1.647C9.547 1.222 10.148 0.876 10.723 0.613C11.307 0.352 11.728 0.197 11.992 0.156L12.388 0.066C12.658 0.715 12.822 1.426 12.884 2.198C12.96 2.967 12.957 3.373 12.875 3.414V3.414ZM7.03 11.234C8.718 11.234 9.984 11.032 10.851 10.627C11.706 10.223 12.143 9.389 12.143 8.131C12.143 7.401 11.87 6.791 11.321 6.303C11.043 6.04 10.708 5.878 10.332 5.817C9.956 5.756 9.383 5.756 8.612 5.817C7.843 5.879 7.314 5.907 7.03 5.907C6.645 5.907 6.23 5.889 5.711 5.848C5.191 5.808 4.783 5.783 4.488 5.77C4.194 5.761 3.879 5.797 3.53 5.878C3.185 5.96 2.901 6.102 2.677 6.303C2.156 6.772 1.887 7.38 1.887 8.131C1.887 9.389 2.313 10.223 3.167 10.627C4.017 11.032 5.28 11.234 6.969 11.234H7.03V11.234ZM4.596 6.973C4.864 6.973 5.088 7.106 5.281 7.369C5.473 7.634 5.575 7.957 5.575 8.344C5.575 8.729 5.473 9.055 5.281 9.317C5.089 9.582 4.864 9.713 4.596 9.713C4.317 9.713 4.074 9.582 3.88 9.317C3.688 9.055 3.586 8.729 3.586 8.344C3.586 7.957 3.688 7.634 3.88 7.369C4.073 7.105 4.316 6.973 4.596 6.973Z" fill="white"/>
</svg>
