<svg width="14" height="14" viewBox="0 0 14 14" fill="none" xmlns="http://www.w3.org/2000/svg">
<path d="M0.581997 0C0.564497 0.05425 0.546997 0.108063 0.546997 0.179813V13.7301C0.546997 13.8565 0.582435 13.9282 0.654185 14L7.31293 6.94575L0.581997 0ZM7.76225 7.413L9.48381 9.18925L7.02637 10.5893C7.02637 10.5893 3.90262 12.3651 2.18018 13.3538L7.76225 7.413ZM8.2295 6.92825L10.0762 8.84844C10.3654 8.68744 12.6259 7.39463 12.9484 7.21525C13.2892 7.01794 13.2546 6.74844 12.9654 6.60494C12.6977 6.45619 10.4371 5.16119 10.0954 4.95119L8.22687 6.93L8.2295 6.92825ZM7.76093 6.46144L9.50175 4.613L7.01718 3.19506C7.01718 3.19506 2.96725 0.878062 1.61975 0.104562L7.76225 6.46188L7.76093 6.46144Z" fill="white"/>
</svg>
