<svg width="12" height="14" viewBox="0 0 12 14" fill="none" xmlns="http://www.w3.org/2000/svg">
<path d="M0.305311 2.27366e-05C0.295425 -0.00010111 0.285539 0.000281208 0.275692 0.00116429C0.201341 0.00524044 0.131365 0.0376019 0.080107 0.091615C0.0288489 0.145628 0.000189772 0.217201 3.29563e-06 0.291659V13.707C-0.000243262 13.7588 0.0133487 13.8098 0.0393783 13.8547C0.0654075 13.8996 0.102933 13.9367 0.148085 13.9622C0.193237 13.9877 0.244383 14.0008 0.296249 14C0.348116 13.9992 0.398828 13.9845 0.443155 13.9576L1.57439 13.2729C1.59722 13.2628 1.61867 13.2498 1.63818 13.2342L11.5254 7.24996C11.5685 7.22401 11.6042 7.18734 11.6291 7.14356C11.6539 7.09973 11.6669 7.05025 11.6669 6.9999C11.6669 6.94956 11.6539 6.90002 11.6291 6.85624C11.6042 6.81241 11.5685 6.77574 11.5254 6.74984L1.64274 0.76899C1.64086 0.767827 1.63895 0.766691 1.63704 0.765571C1.61631 0.748437 1.59331 0.734254 1.56869 0.72342L0.443155 0.0421735C0.401457 0.016812 0.354061 0.00232197 0.305311 2.27366e-05ZM0.583278 0.808863L1.2668 1.22239L6.02184 7.00157L1.2725 12.7728L0.583278 13.1897V0.808863ZM2.7717 2.13376L7.61445 5.06494L6.39892 6.54248L2.7717 2.13376ZM8.11915 5.37025L10.8088 6.99931L8.11683 8.6295L6.77714 7.00157L8.11915 5.37025ZM6.39892 7.46072L7.61219 8.93481L2.77853 11.8615L6.39892 7.46072Z" fill="white"/>
</svg>
