<svg xmlns="http://www.w3.org/2000/svg" width="16" height="16" viewBox="0 0 16 16"><path fill="#fff" d="M8 1.441c2.137 0 2.391.009 3.231.047.781.034 1.203.166 1.484.275.372.144.641.319.919.597.281.281.453.547.6.919.109.281.241.706.275 1.484.037.844.047 1.097.047 3.231s-.009 2.391-.047 3.231c-.034.781-.166 1.203-.275 1.484a2.478 2.478 0 0 1-.597.919 2.51 2.51 0 0 1-.919.6c-.281.109-.706.241-1.484.275-.844.037-1.097.047-3.231.047s-2.391-.009-3.231-.047c-.781-.034-1.203-.166-1.484-.275a2.478 2.478 0 0 1-.919-.597 2.51 2.51 0 0 1-.6-.919c-.109-.281-.241-.706-.275-1.484-.038-.844-.047-1.097-.047-3.231s.009-2.391.047-3.231c.034-.781.166-1.203.275-1.484.144-.372.319-.641.597-.919a2.51 2.51 0 0 1 .919-.6c.281-.109.706-.241 1.484-.275C5.61 1.45 5.863 1.441 8 1.441zM8 0C5.828 0 5.556.009 4.703.047c-.85.038-1.434.175-1.941.372a3.904 3.904 0 0 0-1.419.925A3.918 3.918 0 0 0 .418 2.76C.221 3.269.084 3.851.046 4.701c-.037.856-.047 1.128-.047 3.3s.009 2.444.047 3.297c.038.85.175 1.434.372 1.941.206.528.478.975.925 1.419a3.91 3.91 0 0 0 1.416.922c.509.197 1.091.334 1.941.372.853.037 1.125.047 3.297.047s2.444-.009 3.297-.047c.85-.037 1.434-.175 1.941-.372.525-.203.972-.478 1.416-.922s.719-.891.922-1.416c.197-.509.334-1.091.372-1.941.037-.853.047-1.125.047-3.297s-.009-2.444-.047-3.297c-.037-.85-.175-1.434-.372-1.941a3.752 3.752 0 0 0-.916-1.422 3.91 3.91 0 0 0-1.416-.922C12.732.225 12.15.088 11.3.05 10.444.009 10.172 0 8 0z"/><path fill="#fff" d="M8 3.891a4.11 4.11 0 0 0 0 8.218 4.11 4.11 0 0 0 0-8.218zm0 6.775a2.667 2.667 0 1 1 .001-5.333A2.667 2.667 0 0 1 8 10.666zM13.231 3.728a.96.96 0 1 1-1.918 0 .96.96 0 0 1 1.918 0z"/></svg>