<svg xmlns="http://www.w3.org/2000/svg" width="18" height="18"><path fill="#fff" d="M5.997 4.229v11.782c0 .311-.151.603-.492.603a.732.732 0 0 1-.331-.08l-4.671-2.34c-.281-.141-.502-.502-.502-.804V1.939c0-.251.121-.482.392-.482.161 0 .301.08.442.151l5.133 2.571c.01.01.03.04.03.05zm.643 1.014l5.364 8.699L6.64 11.27V5.243zM18 5.424v10.587c0 .331-.191.563-.522.563a.945.945 0 0 1-.472-.131l-4.43-2.21zm-.03-1.205c0 .04-5.193 8.468-5.595 9.11L8.458 6.961l3.254-5.294a.604.604 0 0 1 .522-.281c.09 0 .181.02.261.06l5.434 2.712c.02.01.04.03.04.06z"/></svg>