<svg xmlns="http://www.w3.org/2000/svg" width="17" height="20"><path fill="#fff" d="M12.578 13.504q0-.357-.335-.569-2.154-1.283-4.989-1.283-1.484 0-3.203.379-.469.1-.469.58 0 .223.151.385t.396.162q.056 0 .413-.089 1.473-.301 2.712-.301 2.522 0 4.431 1.15.212.123.368.123.212 0 .368-.151t.156-.385zm1.072-2.399q0-.446-.391-.681Q10.614 8.85 7.143 8.85q-1.708 0-3.382.469-.536.145-.536.714 0 .279.195.474t.474.195q.078 0 .413-.089 1.362-.368 2.801-.368 3.114 0 5.446 1.384.268.145.424.145.279 0 .474-.195t.195-.474zm1.205-2.768q0-.525-.446-.781-1.406-.815-3.27-1.233t-3.828-.419q-2.277 0-4.063.525-.257.078-.43.285t-.173.541q0 .346.229.58t.575.234q.123 0 .446-.089 1.484-.413 3.426-.413 1.775 0 3.454.379t2.829 1.06q.234.134.446.134.324 0 .564-.229t.24-.575zM17.143 10q0 2.333-1.15 4.302t-3.119 3.119-4.302 1.15-4.302-1.15-3.119-3.119T.001 10t1.15-4.302T4.27 2.579t4.302-1.15 4.302 1.15 3.119 3.119T17.143 10z"/></svg>